<?xml version="1.0" encoding="UTF-8" standalone="no"?>
<!DOCTYPE svg PUBLIC "-//W3C//DTD SVG 1.1//EN" "http://www.w3.org/Graphics/SVG/1.1/DTD/svg11.dtd">
<svg width="100%" height="100%" viewBox="0 0 114 35" version="1.1" xmlns="http://www.w3.org/2000/svg" xmlns:xlink="http://www.w3.org/1999/xlink" xml:space="preserve" xmlns:serif="http://www.serif.com/" style="fill-rule:evenodd;clip-rule:evenodd;stroke-linejoin:round;stroke-miterlimit:2;">
    <g transform="matrix(1.03636,0,0,1.16667,1.06581e-14,2.66454e-15)">
        <rect x="0" y="0" width="110" height="30" style="fill:rgb(20,128,94);"/>
    </g>
    <g transform="matrix(1,0,0,1,7,6.5)">
        <path d="M55.056,17.168C56.903,17.168 57.866,16.547 57.866,15.25C57.866,13.98 56.873,13.278 54.946,13.278C54.231,13.278 53.376,13.334 52.441,13.475L52.441,9.193C53.211,9.28 53.928,9.306 54.644,9.306C56.626,9.306 57.616,8.714 57.616,7.365C57.616,6.042 56.71,5.424 54.838,5.424C53.625,5.424 52.086,5.764 50.188,6.355L50.188,1.889C51.873,1.295 53.907,1.015 56.3,1.015C61.505,1.015 64.505,3.297 64.505,6.878C64.505,9.077 63.103,10.682 60.65,11.219C63.377,11.785 64.779,13.334 64.779,15.702C64.779,19.419 61.727,21.586 55.889,21.586C53.932,21.586 52.009,21.307 50.026,20.829L50.026,16.233C51.984,16.825 53.633,17.164 55.069,17.164L55.056,17.168ZM76.778,8.345C80.88,8.345 83.605,10.909 83.605,14.686C83.605,18.746 80.494,21.564 75.594,21.564C69.813,21.564 66.094,17.872 66.094,11.813C66.094,4.91 70.035,1.019 77.138,1.019C78.759,1.026 80.375,1.207 81.958,1.559L81.958,6.042C80.471,5.572 78.92,5.334 77.36,5.337C74.223,5.337 72.762,6.634 72.685,9.567C73.847,8.67 75.112,8.357 76.787,8.357L76.778,8.345ZM77.356,14.548C77.356,12.911 76.448,11.867 75.126,11.867C73.804,11.867 72.923,12.882 72.923,14.547C72.923,16.181 73.805,17.195 75.126,17.195C76.476,17.195 77.356,16.181 77.356,14.548ZM85.644,1.523L99.05,1.523L99.05,6.203L91.914,6.203L91.914,9.163C92.486,9.133 92.879,9.106 93.008,9.106C97.435,9.106 99.837,11.395 99.837,15.251C99.837,19.229 96.914,21.596 91.221,21.596C89.238,21.596 87.281,21.292 85.298,20.786L85.298,16.33C86.811,16.757 88.136,16.957 89.264,16.957C91.572,16.957 92.785,16.165 92.785,14.703C92.785,13.073 91.521,12.255 88.931,12.255C87.828,12.255 86.754,12.452 85.625,12.734L85.625,1.524L85.644,1.523Z" style="fill:rgb(255,228,24);fill-rule:nonzero;"/>
    </g>
    <g transform="matrix(1,0,0,1,7,6.5)">
        <path d="M0,0L6.795,0L6.795,8.307C7.761,6.956 9.085,6.324 10.88,6.324C14.83,6.324 17.068,9.14 17.068,14.142C17.068,18.915 14.803,21.761 11.047,21.761C8.755,21.761 7.207,20.899 6.325,19.059L6.325,21.559L0,21.559L0,0ZM6.6,13.997C6.6,16.184 7.07,17.247 8.285,17.247C9.474,17.247 9.997,16.185 9.997,13.997C9.997,11.821 9.5,10.751 8.285,10.751C7.07,10.751 6.6,11.821 6.6,13.997ZM34.445,15.381L25.022,15.381C25.187,16.993 26.403,17.757 28.695,17.757C30.297,17.757 31.954,17.447 33.554,16.824L33.554,20.584C31.981,21.234 29.827,21.602 27.314,21.602C21.514,21.602 18.394,18.775 18.394,13.799C18.394,8.935 21.462,6.023 26.574,6.023C32.24,6.023 34.445,8.709 34.445,14.421L34.445,15.381ZM28.528,12.525L28.528,12.073C28.528,10.404 27.921,9.444 26.761,9.444C25.573,9.444 24.966,10.404 24.966,12.102L24.966,12.525L28.528,12.525ZM47.863,6.419L47.863,10.745L44.695,10.745L44.695,14.279C44.695,16.089 44.975,16.938 46.335,16.938C46.702,16.938 47.197,16.877 47.779,16.738L47.779,20.977C46.309,21.429 44.839,21.595 43.283,21.595C41.368,21.595 39.898,20.968 39.035,19.897C37.924,18.478 37.898,16.703 37.898,14.327L37.898,10.74L35.47,10.74L35.47,6.415L37.889,6.415L37.889,3.14L44.695,0.96L44.695,6.418L47.863,6.419Z" style="fill:white;fill-rule:nonzero;"/>
    </g>
</svg>
