<?xml version="1.0" encoding="UTF-8" standalone="no"?>
<!DOCTYPE svg PUBLIC "-//W3C//DTD SVG 1.1//EN" "http://www.w3.org/Graphics/SVG/1.1/DTD/svg11.dtd">
<svg width="100%" height="100%" viewBox="0 0 652 160" version="1.1" xmlns="http://www.w3.org/2000/svg" xmlns:xlink="http://www.w3.org/1999/xlink" xml:space="preserve" xmlns:serif="http://www.serif.com/" style="fill-rule:evenodd;clip-rule:evenodd;stroke-linejoin:round;stroke-miterlimit:2;">
    <rect x="0" y="0" width="652" height="160" style="fill:rgb(246,178,60);"/>
    <g id="path14" transform="matrix(0.125,0,0,-0.125,0,-123.875)">
        <path d="M1465.6,-1642.8C1465.6,-1507.6 1552.1,-1505.1 1668.9,-1505.1L1682.2,-1505.1C1796,-1505.1 1858.4,-1524.2 1858.4,-1655.1L1858.4,-1746.2C1858.4,-1855.8 1830.1,-1902.5 1678.2,-1902.5L1649.2,-1902.5C1505.1,-1902.5 1465.7,-1862.9 1465.7,-1753.7C1465.6,-1753.8 1465.6,-1642.8 1465.6,-1642.8ZM1465.6,-1933.5L1468,-1933.5C1503.8,-1980.7 1569.7,-2005.1 1650.6,-2005.1L1692.5,-2005.1C1861.9,-2005.1 1985.8,-1962 1985.7,-1766.8L1985.7,-1647.6C1985.7,-1466.9 1905.9,-1402.7 1697.8,-1402.7L1633.1,-1402.7C1542.2,-1402.7 1491.5,-1433.5 1467.8,-1466.9L1465.6,-1466.9L1465.6,-1178L1338.3,-1178L1338.3,-1986.7L1465.7,-1986.7L1465.6,-1933.5" style="fill:rgb(35,35,35);fill-rule:nonzero;"/>
    </g>
    <g id="path16" transform="matrix(0.125,0,0,-0.125,0,-123.875)">
        <path d="M3529.9,-1416.9L3358.9,-1416.9L3358.9,-1364.7C3358.9,-1314.9 3391.5,-1274.9 3461.1,-1274.9L3588.1,-1275.1L3588.1,-1177.9L3419.2,-1178C3317.1,-1178 3231.4,-1231.2 3231.4,-1365.4L3231.4,-1417L3162.8,-1417L3162.8,-1519.2L3231.4,-1519.2L3231.4,-2004.8L3358.9,-2004.8L3358.9,-1519.2L3529.9,-1519.2L3529.9,-1416.9" style="fill:rgb(35,35,35);fill-rule:nonzero;"/>
    </g>
    <g id="path18" transform="matrix(0.125,0,0,-0.125,0,-123.875)">
        <path d="M2793.7,-1817.3C2793.7,-1951.6 2879.5,-2004.8 2981.6,-2004.8L3139.8,-2004.8L3139.8,-1902.4L3012.7,-1902.4C2943.2,-1902.4 2921.2,-1867.6 2921.2,-1817.8L2921.2,-1519.1L3092.4,-1519.1L3092.4,-1416.7L2921.2,-1416.7L2921.2,-1177.8L2793.9,-1177.8L2793.9,-1416.8L2725.3,-1416.8L2725.3,-1519.1L2793.9,-1519.1L2793.7,-1817.3" style="fill:rgb(35,35,35);fill-rule:nonzero;"/>
    </g>
    <g id="path20" transform="matrix(0.125,0,0,-0.125,0,-123.875)">
        <path d="M4261,-1307.3L4388.3,-1307.3L4388.3,-1177.9L4260.9,-1178L4261,-1307.3" style="fill:rgb(35,35,35);fill-rule:nonzero;"/>
    </g>
    <g id="path22" transform="matrix(0.125,0,0,-0.125,0,-123.875)">
        <path d="M4260.9,-2005L4388.3,-2005L4388.3,-1402.5L4260.9,-1402.5L4260.9,-2005" style="fill:rgb(35,35,35);fill-rule:nonzero;"/>
    </g>
    <g id="path24" transform="matrix(0.125,0,0,-0.125,0,-123.875)">
        <path d="M2176.8,-1632.3C2176.8,-1516.6 2230.7,-1505 2362.1,-1505L2387.8,-1505C2535.7,-1505 2554.8,-1542.3 2554.8,-1618.3L2554.9,-1650.6L2176.7,-1650.8L2176.8,-1632.3ZM2315.7,-2005L2430.3,-2005C2584.6,-2005 2655.1,-1956 2673.1,-1870.4L2559.7,-1836.1C2540.9,-1888.8 2495.5,-1902.6 2395.6,-1902.6L2366.2,-1902.6C2203.1,-1902.6 2176.6,-1881.9 2176.5,-1753.3L2176.8,-1753.2L2682.3,-1753.2L2682.3,-1641.8C2682.3,-1440.1 2577.6,-1402.6 2410.2,-1402.6L2347.9,-1402.6C2215.4,-1402.6 2054.8,-1425.8 2054.8,-1631L2054.8,-1773.2C2054.9,-1972.5 2194.1,-2005.1 2315.7,-2005" style="fill:rgb(35,35,35);fill-rule:nonzero;"/>
    </g>
    <g id="path26" transform="matrix(0.125,0,0,-0.125,0,-123.875)">
        <path d="M4020.5,-1825C4020.5,-1881.6 3981.7,-1902.6 3830.9,-1902.6L3796.9,-1902.6C3668.7,-1902.6 3652.5,-1877.9 3652.5,-1829L3652.5,-1797.3C3652.5,-1740.7 3684.4,-1719.3 3790.6,-1719.3L3847.3,-1719.3C3944,-1719.3 4020.6,-1738.3 4020.6,-1801.7L4020.6,-1825L4020.5,-1825ZM3862.1,-1402.5L3814.5,-1402.5C3641.7,-1402.5 3566.8,-1455.7 3561.9,-1535.3L3683.3,-1575.6C3688.9,-1521.2 3751.4,-1505.1 3846,-1505.1C3986.8,-1505.1 4020.1,-1513.2 4020.1,-1615L4020.1,-1670.3L4017.6,-1670.3C3985.8,-1627.9 3942.3,-1616.9 3832,-1616.9L3782.2,-1616.9C3619.6,-1616.9 3524.8,-1657.4 3524.8,-1786.1L3524.8,-1822.9C3525,-1929.2 3565.4,-2005 3735.3,-2005L3859,-2005C3981.9,-2005 3994.2,-1984.8 4018.5,-1949.6L4020.4,-1949.6L4020.4,-2004.7L4147.7,-2004.7L4147.7,-1617.4C4147.8,-1448.9 4035.8,-1402.5 3862.1,-1402.5" style="fill:rgb(35,35,35);fill-rule:nonzero;"/>
    </g>
    <g id="path28" transform="matrix(0.125,0,0,-0.125,0,-123.875)">
        <path d="M4776.9,-1402.5C4720.3,-1402.5 4662.6,-1423.9 4626.8,-1482.5L4622.2,-1482.5L4622.2,-1402.5L4501.6,-1402.6L4501.6,-2005L4629,-2005L4629,-1642.5C4629,-1569.3 4671,-1505 4770,-1505C4840.7,-1505 4874.8,-1524.2 4882.4,-1544.4L4962.7,-1490.3C4942.8,-1435.5 4889.6,-1402.5 4776.9,-1402.5" style="fill:rgb(35,35,35);fill-rule:nonzero;"/>
    </g>
    <g id="path30" transform="matrix(0.125,0,0,-0.125,0,-123.875)">
        <path d="M1103.6,-1179.9L773.8,-1179.9L773.8,-1345.4L597.5,-1345.4L938.7,-1744L1280,-1345.4L1103.6,-1345.4L1103.6,-1179.9" style="fill:rgb(35,35,35);fill-rule:nonzero;"/>
    </g>
    <g id="path32" transform="matrix(0.125,0,0,-0.125,0,-123.875)">
        <path d="M162.7,-1835.7L339.1,-1835.7L339.1,-2001.3L668.9,-2001.3L668.9,-1835.6L845.3,-1835.6L504.2,-1437.3L162.7,-1835.7" style="fill:rgb(35,35,35);fill-rule:nonzero;"/>
    </g>
</svg>
