<?xml version="1.0" encoding="UTF-8" standalone="no"?>
<!DOCTYPE svg PUBLIC "-//W3C//DTD SVG 1.1//EN" "http://www.w3.org/Graphics/SVG/1.1/DTD/svg11.dtd">
<svg width="100%" height="100%" viewBox="0 0 150 50" version="1.1" xmlns="http://www.w3.org/2000/svg" xmlns:xlink="http://www.w3.org/1999/xlink" xml:space="preserve" xmlns:serif="http://www.serif.com/" style="fill-rule:evenodd;clip-rule:evenodd;stroke-linejoin:round;stroke-miterlimit:2;">
    <rect x="0" y="0" width="150" height="50" style="fill:white;"/>
    <g transform="matrix(1.06065,0,0,1.06065,7.5,15.6834)">
        <path d="M2.43,6.09C2.29,5.86 1.78,6.18 1.83,6.37L2.15,6.37L2.43,6.09Z" style="fill:rgb(186,165,100);fill-rule:nonzero;"/>
        <path d="M2.43,6.09L2.15,6.37L1.83,6.37C1.78,6.18 2.29,5.86 2.43,6.09M2.2,6.46C2.52,6.69 3,6 3.45,6C4.15,6 5,5.86 5.5,6.46L5.26,6C4.656,5.94 4.072,5.749 3.55,5.44C2.55,4.97 2.01,6.44 1.13,6.23C1.449,6.429 1.828,6.511 2.2,6.46M2.11,2.47C1.741,1.923 1.175,1.54 0.53,1.4L0.53,3.86C0.853,3.969 1.19,4.033 1.53,4.05C1.979,3.905 2.285,3.484 2.285,3.013C2.285,2.822 2.235,2.635 2.14,2.47" style="fill-rule:nonzero;"/>
        <path d="M2.94,3.44L4.66,3.26C4.917,2.655 4.948,1.977 4.75,1.35C4.678,1.108 4.551,0.886 4.38,0.7L0.53,0.7L0.53,1C0.913,1.061 1.286,1.172 1.64,1.33C2.458,1.716 2.971,2.556 2.94,3.46M8,1.77C7.51,1.333 6.957,0.972 6.36,0.7L5.17,0.7C5.458,1.209 5.603,1.786 5.59,2.37C6.258,1.811 7.148,1.59 8,1.77M127.28,17L127.28,0.29L123.39,0.29L117.61,10L111.74,0.33L107.85,0.33L107.85,17L112.22,17L112.22,8.42L116.49,15.42L118.59,15.42L122.88,8.21L122.93,17.07L127.28,17ZM100.67,8.33L104.85,8.33L104.85,15.25C102.781,16.64 100.342,17.378 97.85,17.37C92.53,17.37 88.64,13.77 88.64,8.68C88.64,3.59 92.51,0 97.93,0C100.698,-0.144 103.387,0.98 105.23,3.05L102.23,5.77C101.239,4.588 99.772,3.906 98.23,3.91C98.114,3.901 97.997,3.896 97.88,3.896C95.417,3.896 93.39,5.923 93.39,8.386C93.39,8.484 93.394,8.582 93.4,8.68C93.395,8.768 93.392,8.856 93.392,8.945C93.392,11.424 95.433,13.465 97.912,13.465C97.982,13.465 98.051,13.463 98.12,13.46C99,13.466 99.871,13.278 100.67,12.91L100.67,8.33ZM86.14,17L86.1,0.33L82.21,0.33L76.48,10L70.61,0.33L66.72,0.33L66.72,17L71.09,17L71.09,8.42L75.36,15.42L77.46,15.42L81.75,8.21L81.75,17.07L86.14,17ZM57.32,1.86L51.45,1.86L51.45,0.33L65,0.33L65,1.86L59.09,1.86L59.09,17L57.32,17L57.32,1.86ZM39.88,15.51L39.88,9.31L48.52,9.31L48.52,7.8L39.88,7.8L39.88,1.86L49.57,1.86L49.57,0.33L38.12,0.33L38.12,17L49.93,17L49.93,15.51L39.88,15.51ZM33.67,12.43C33.67,10.26 32.07,9.31 29.13,9.31L23.24,9.31L23.24,15.58L29.13,15.58C32.07,15.58 33.67,14.63 33.67,12.43M23.24,1.79L23.24,7.85L28.56,7.85C31.23,7.85 32.78,6.85 32.78,4.85C32.78,2.85 31.23,1.85 28.56,1.85L23.24,1.79ZM35.43,12.57C35.43,15.41 33.33,17.04 29.16,17.04L21.47,17.04L21.47,0.33L28.68,0.33C32.4,0.33 34.55,1.91 34.55,4.63C34.612,6.308 33.578,7.845 32,8.42C34.032,8.71 35.528,10.52 35.43,12.57" style="fill-rule:nonzero;"/>
        <path d="M8.05,11.43C7.59,11.34 6.98,12.22 6.75,11.48L6.61,11.62C6.61,11.85 6.52,12.17 6.75,12.36C7.4,11.99 8.75,12.22 8.42,11.06C8.19,11.01 8.28,11.34 8.05,11.43M8.51,8.55C8.19,8.27 7.31,9 7,9.29C7,9.57 6.86,10.04 7.14,10.08C7.42,10.12 7.14,9.76 7.23,9.62C7.454,9.229 7.852,8.969 8.3,8.92L8.49,9.39L8.61,9C8.61,8.81 8.61,8.58 8.51,8.53" style="fill:rgb(186,165,100);fill-rule:nonzero;"/>
        <path d="M5.77,17.05C6.538,16.04 6.716,14.696 6.24,13.52C7.216,13.639 8.181,13.212 8.75,12.41C8.84,12.22 8.65,12.13 8.51,11.99C7.767,12.372 6.934,12.548 6.1,12.5C5.54,12.03 4.66,11.71 4.47,10.92C4.61,10.22 4.47,9.29 5.12,8.83L5.12,9C5.64,9.1 6.12,9.42 6.66,9.28C7.12,8.77 7.77,8.59 8.28,8.12C8.47,8.35 8.79,8.22 9.03,8.26C10.029,9.423 10.423,10.993 10.09,12.49C9.95,14.9 8.24,16.2 6.38,17.04L5.77,17.05ZM5.17,17.05L2.66,17C4.29,15.05 2.66,11.89 3.82,9.62C4.159,9.083 4.554,8.583 5,8.13C4.369,8.781 3.948,9.607 3.79,10.5C3.7,12.82 7.32,14.21 5.47,16.63C5.37,16.762 5.26,16.885 5.14,17M2.29,10.32L2.29,11.32C1.576,10.149 1.228,8.79 1.29,7.42C2.169,7.949 3.237,8.067 4.21,7.74C3.141,8.197 2.395,9.195 2.26,10.35M3.55,5.44C4.072,5.749 4.656,5.94 5.26,6L5.5,6.46C5,5.86 4.15,6 3.45,6C2.99,6 2.52,6.65 2.2,6.42C1.828,6.471 1.449,6.389 1.13,6.19C2,6.46 2.52,5 3.55,5.44M7.26,2.23C9.35,2.1 10.93,4.46 11.44,6.23C11.95,8 12.09,12.36 9.91,14.23C10.7,12.41 11,9.53 9.44,7.9C9.12,7.48 9.54,6.69 8.79,6.51C8.61,6.74 8.47,7.39 8.05,7.11C7.605,6.894 7.139,6.723 6.66,6.6C7.21,6.46 8.24,6.93 8.61,6.23C8.61,6.04 8.47,5.76 8.24,5.72C7.77,5.9 7.86,5.53 7.63,5.3C7.08,5.16 6.33,5.11 6.05,4.51C6.42,4.32 6.66,4.88 6.94,5.11C7.17,5.02 7.03,4.79 7.08,4.6C6.562,4.13 5.999,3.711 5.4,3.35C5.83,2.727 6.508,2.318 7.26,2.23M12.69,8.88C12.707,5.672 11.208,2.636 8.65,0.7L6.36,0.7C6.957,0.972 7.51,1.333 8,1.77C7.148,1.59 6.258,1.811 5.59,2.37C5.603,1.786 5.458,1.209 5.17,0.7L4.38,0.7C4.551,0.886 4.678,1.108 4.75,1.35C4.948,1.977 4.917,2.655 4.66,3.26L2.94,3.44C2.971,2.536 2.458,1.696 1.64,1.31C1.285,1.159 0.912,1.055 0.53,1L0.53,1.4C1.175,1.54 1.741,1.923 2.11,2.47C2.205,2.635 2.255,2.822 2.255,3.013C2.255,3.484 1.949,3.905 1.5,4.05C1.16,4.033 0.823,3.969 0.5,3.86L0.5,10.34C1.89,12.34 4.1,14.15 2.21,16.72L1.89,17.05L8.65,17.05C11.184,15.102 12.666,12.076 12.65,8.88" style="fill:rgb(186,165,100);fill-rule:nonzero;"/>
        <path d="M16.83,17.05L0.53,17.05L0.48,10.27L0.53,10.34L0.53,0.7L16.83,0.7L16.83,17.05ZM0,17.58L17.35,17.58L17.35,0.18L0,0.18L0,17.58Z" style="fill:rgb(186,165,100);fill-rule:nonzero;"/>
        <path d="M4.24,7.71C3.267,8.037 2.199,7.919 1.32,7.39C1.258,8.76 1.606,10.119 2.32,11.29L2.32,10.29C2.465,9.124 3.231,8.123 4.32,7.68M3.82,10.55C3.969,9.66 4.38,8.835 5,8.18C4.557,8.617 4.162,9.1 3.82,9.62C2.71,11.89 4.29,15.05 2.66,17L5.17,17.05C5.29,16.935 5.4,16.812 5.5,16.68C7.35,14.26 3.73,12.87 3.82,10.55M12.69,8.88C12.706,12.076 11.224,15.102 8.69,17.05L16.87,17.05L16.87,0.7L8.65,0.7C11.193,2.645 12.677,5.679 12.65,8.88" style="fill-rule:nonzero;"/>
        <path d="M2.24,16.72C4.13,14.15 1.92,12.35 0.53,10.34L0.48,10.27L0.53,17.05L1.92,17.05L2.24,16.72ZM8.61,9L8.47,9.38L8.28,8.91C7.831,8.956 7.432,9.217 7.21,9.61C7.21,9.75 7.21,9.98 7.12,10.07C7.03,10.16 7,9.57 7,9.29C7.33,8.97 8.21,8.29 8.53,8.55C8.63,8.55 8.67,8.83 8.63,9.01M6.75,12.36C6.52,12.17 6.61,11.85 6.61,11.62L6.75,11.48C6.98,12.22 7.59,11.34 8.05,11.43C8.28,11.34 8.19,11.01 8.42,11.06C8.79,12.22 7.42,11.99 6.75,12.36M10.09,12.5C10.415,10.998 10.01,9.428 9,8.27C8.76,8.27 8.44,8.36 8.25,8.13C7.74,8.6 7.09,8.78 6.63,9.29C6.12,9.43 5.63,9.11 5.09,9.01L5.09,8.83C4.4,9.29 4.58,10.22 4.44,10.92C4.63,11.71 5.51,12.03 6.07,12.5C6.913,12.557 7.757,12.384 8.51,12C8.65,12.14 8.84,12.23 8.75,12.42C8.181,13.222 7.216,13.649 6.24,13.53C6.716,14.706 6.538,16.05 5.77,17.06L6.38,17.06C8.24,16.22 9.95,14.92 10.09,12.51" style="fill-rule:nonzero;"/>
        <path d="M6.94,5.11C6.66,4.88 6.42,4.32 6.05,4.51C6.33,5.11 7.05,5.16 7.63,5.3C7.86,5.53 7.77,5.9 8.24,5.72C8.47,5.72 8.56,6.04 8.61,6.23C8.24,6.93 7.21,6.46 6.66,6.6C7.139,6.723 7.605,6.894 8.05,7.11C8.47,7.39 8.61,6.74 8.79,6.51C9.54,6.69 9.12,7.51 9.44,7.9C11.02,9.53 10.7,12.41 9.91,14.26C12.09,12.36 11.91,7.99 11.44,6.26C10.97,4.53 9.35,2.13 7.26,2.26C6.513,2.341 5.836,2.738 5.4,3.35C5.998,3.709 6.557,4.128 7.07,4.6C7.07,4.79 7.17,5.02 6.94,5.11" style="fill-rule:nonzero;"/>
    </g>
</svg>
