<?xml version="1.0" encoding="UTF-8" standalone="no"?>
<!DOCTYPE svg PUBLIC "-//W3C//DTD SVG 1.1//EN" "http://www.w3.org/Graphics/SVG/1.1/DTD/svg11.dtd">
<svg width="100%" height="100%" viewBox="0 0 150 50" version="1.1" xmlns="http://www.w3.org/2000/svg" xmlns:xlink="http://www.w3.org/1999/xlink" xml:space="preserve" xmlns:serif="http://www.serif.com/" style="fill-rule:evenodd;clip-rule:evenodd;stroke-linejoin:round;stroke-miterlimit:2;">
    <rect x="0" y="0" width="150" height="50" style="fill:rgb(234,6,9);"/>
    <g transform="matrix(0.85443,0,0,0.85443,7.5,13.0381)">
        <path d="M13.91,8.666C13.781,7.159 13.118,6.104 11.084,5.793C9.143,5.493 8.221,6.12 8.06,7.119C7.876,8.269 8.645,8.83 10.65,9.449C11.5,9.714 12.351,9.976 13.203,10.236C18.252,11.778 19.863,13.852 19.401,17.385C18.894,21.33 15.281,24.014 8.767,23.027C2.287,22.031 -0.977,18.873 0.257,13.929C2.299,14.286 4.343,14.628 6.389,14.957C5.977,16.504 6.603,17.855 9.616,18.318C11.93,18.67 13.015,18.11 13.186,16.927C13.335,15.895 12.748,15.286 10.997,14.743C10.157,14.482 9.319,14.219 8.481,13.954C3.389,12.344 1.364,9.945 2.003,6.296C2.616,2.816 5.784,0.132 11.901,1.079C17.686,1.96 20.403,4.922 19.905,9.471C17.905,9.216 15.907,8.948 13.91,8.666Z" style="fill:white;fill-rule:nonzero;"/>
        <path d="M21.443,15.733C21.981,11.515 22.519,7.297 23.057,3.079C25.057,3.334 27.059,3.576 29.061,3.804C28.591,7.937 28.12,12.071 27.649,16.204C27.366,18.671 28.339,20.02 30.629,20.265C32.919,20.508 34.153,19.393 34.396,16.922C34.805,12.783 35.215,8.643 35.625,4.503C37.63,4.701 39.636,4.887 41.643,5.058C41.281,9.295 40.919,13.531 40.557,17.768C40.084,23.475 36.424,26.457 30.041,25.784C23.66,25.098 20.704,21.412 21.443,15.733Z" style="fill:white;fill-rule:nonzero;"/>
        <path d="M42.725,26.53C43.286,19.449 43.847,12.367 44.408,5.286C47.584,5.537 50.761,5.755 53.94,5.939C58.911,6.226 62.217,9.193 62.048,13.853C61.88,18.477 58.235,21.236 53.072,20.939C51.864,20.869 50.656,20.795 49.448,20.715C49.311,22.806 49.174,24.897 49.036,26.988C46.932,26.849 44.828,26.697 42.725,26.53ZM49.782,15.636C50.746,15.699 51.71,15.76 52.674,15.817C54.531,15.927 55.556,15.027 55.633,13.557C55.708,12.117 54.796,11.089 52.868,10.975C51.945,10.92 51.022,10.862 50.1,10.802C49.994,12.413 49.888,14.025 49.782,15.636Z" style="fill:white;fill-rule:nonzero;"/>
        <path d="M63.444,27.712C63.692,20.613 63.94,13.513 64.188,6.414C69.391,6.596 74.597,6.688 79.803,6.688C79.802,8.426 79.802,10.164 79.802,11.901C76.572,11.901 73.341,11.866 70.112,11.796C70.091,12.746 70.071,13.697 70.05,14.647C72.809,14.707 75.568,14.741 78.328,14.75C78.322,16.437 78.316,18.123 78.31,19.81C75.521,19.8 72.731,19.766 69.941,19.706C69.92,20.697 69.899,21.688 69.877,22.679C73.227,22.751 76.577,22.787 79.927,22.787C79.928,24.524 79.928,26.262 79.928,28C74.432,28 68.937,27.904 63.444,27.712Z" style="fill:white;fill-rule:nonzero;"/>
        <path d="M101.705,22.092C101.788,23.858 101.871,25.624 101.953,27.391C101.445,27.568 100.707,27.694 99.998,27.724C96.065,27.892 92.818,27.03 90.528,21.654C90.439,21.451 90.349,21.249 90.26,21.046C89.667,21.06 89.073,21.072 88.48,21.083C88.522,23.362 88.564,25.641 88.606,27.92C86.499,27.959 84.391,27.984 82.283,27.994C82.247,20.891 82.211,13.787 82.174,6.684C85.47,6.667 88.766,6.614 92.061,6.524C97.069,6.388 100.63,8.724 100.865,13.566C101.019,16.843 99.41,18.98 96.39,19.856C97.843,22.259 99.414,22.257 100.688,22.2C101.07,22.182 101.451,22.134 101.705,22.092ZM88.304,11.609C88.333,13.153 88.361,14.696 88.39,16.239C89.512,16.218 90.634,16.193 91.756,16.164C93.613,16.115 94.494,15.133 94.449,13.755C94.405,12.406 93.472,11.488 91.543,11.538C90.463,11.566 89.384,11.589 88.304,11.609Z" style="fill:white;fill-rule:nonzero;"/>
        <path d="M104.085,27.378C103.72,20.284 103.354,13.189 102.989,6.095C106.169,5.931 109.347,5.733 112.524,5.502C117.587,5.129 120.37,7.135 120.689,10.59C120.917,13.094 119.304,14.841 117.427,15.518C120.026,15.981 121.862,17.287 122.11,19.975C122.478,23.909 119.843,26.325 114.78,26.705C111.217,26.97 107.652,27.194 104.085,27.378ZM109.565,14.158C110.578,14.092 111.591,14.023 112.604,13.951C114.108,13.842 114.799,12.988 114.702,11.735C114.605,10.481 113.801,9.776 112.312,9.883C111.309,9.955 110.305,10.023 109.301,10.089C109.389,11.445 109.477,12.802 109.565,14.158ZM110.118,22.665C111.139,22.599 112.161,22.529 113.181,22.456C114.937,22.329 115.771,21.493 115.666,20.149C115.561,18.803 114.617,18.11 112.879,18.235C111.868,18.307 110.856,18.376 109.844,18.442C109.935,19.85 110.027,21.257 110.118,22.665Z" style="fill:white;fill-rule:nonzero;"/>
        <path d="M124.691,25.861C124.014,18.79 123.338,11.719 122.661,4.647C127.798,4.156 132.928,3.575 138.05,2.906C138.275,4.629 138.5,6.352 138.725,8.075C135.567,8.488 132.405,8.867 129.241,9.213C129.344,10.158 129.447,11.102 129.551,12.048C132.298,11.747 135.043,11.422 137.785,11.072C137.999,12.745 138.212,14.418 138.426,16.091C135.653,16.445 132.878,16.773 130.1,17.077C130.208,18.063 130.316,19.048 130.423,20.034C133.758,19.669 137.091,19.269 140.419,18.832C140.646,20.555 140.872,22.277 141.098,24C135.637,24.717 130.167,25.337 124.691,25.861ZM148.625,22.95C147.841,17.642 147.057,12.333 146.273,7.025C144.408,7.3 142.542,7.564 140.675,7.816C140.442,6.094 140.21,4.372 139.978,2.65C145.699,1.878 151.408,0.994 157.104,0C157.403,1.712 157.701,3.423 158,5.135C156.11,5.465 154.219,5.783 152.326,6.089C153.182,11.386 154.037,16.684 154.893,21.981C152.805,22.318 150.716,22.641 148.625,22.95Z" style="fill:white;fill-rule:nonzero;"/>
    </g>
</svg>
